<svg width="1440" height="800" viewBox="0 0 1440 800" fill="none" xmlns="http://www.w3.org/2000/svg">
  <g opacity="0.4">
    <path d="M1086.49 0L1086.49 800" stroke="#8B5CF6" stroke-opacity="0.1" stroke-width="2"/>
    <path d="M905.49 0L905.49 800" stroke="#8B5CF6" stroke-opacity="0.1" stroke-width="2"/>
    <path d="M724.49 0L724.49 800" stroke="#8B5CF6" stroke-opacity="0.1" stroke-width="2"/>
    <path d="M543.49 0L543.49 800" stroke="#8B5CF6" stroke-opacity="0.1" stroke-width="2"/>
    <path d="M362.49 0L362.49 800" stroke="#8B5CF6" stroke-opacity="0.1" stroke-width="2"/>
    <path d="M181.49 0L181.49 800" stroke="#8B5CF6" stroke-opacity="0.1" stroke-width="2"/>
    <path d="M0.49 0L0.49 800" stroke="#8B5CF6" stroke-opacity="0.1" stroke-width="2"/>
    <path d="M1440 133.5L0 133.5" stroke="#8B5CF6" stroke-opacity="0.1" stroke-width="2"/>
    <path d="M1440 266.5L0 266.5" stroke="#8B5CF6" stroke-opacity="0.1" stroke-width="2"/>
    <path d="M1440 399.5L0 399.5" stroke="#8B5CF6" stroke-opacity="0.1" stroke-width="2"/>
    <path d="M1440 532.5L0 532.5" stroke="#8B5CF6" stroke-opacity="0.1" stroke-width="2"/>
    <path d="M1440 665.5L0 665.5" stroke="#8B5CF6" stroke-opacity="0.1" stroke-width="2"/>
    <path d="M1440 798.5L0 798.5" stroke="#8B5CF6" stroke-opacity="0.1" stroke-width="2"/>
  </g>
  <circle cx="724" cy="400" r="200" fill="url(#paint0_radial_1_2)" fill-opacity="0.15"/>
  <defs>
    <radialGradient id="paint0_radial_1_2" cx="0" cy="0" r="1" gradientUnits="userSpaceOnUse" gradientTransform="translate(724 400) rotate(90) scale(200)">
      <stop stop-color="#8B5CF6"/>
      <stop offset="1" stop-color="#EC4899" stop-opacity="0"/>
    </radialGradient>
  </defs>
</svg>
